<svg width="24" height="24" viewBox="0 0 24 24" fill="currentColor" xmlns="http://www.w3.org/2000/svg">
    <!-- tail roots (solid wedge into the rump) -->
    <path d="M12.9 13.6 L14.6 13.3 L15.0 15.4 L13.1 15.6 Z"/>
    <!-- curling tail stalks -->
    <g fill="none" stroke="currentColor" stroke-width="1.2" stroke-linecap="round">
        <path d="M13.6 14.2 Q15.6 12.4 15.4 10.0 Q15.2 8.4 13.9 8.5"/>
        <path d="M14.2 14.9 Q17.4 13.6 17.7 10.4 Q17.9 8.5 16.4 8.4"/>
    </g>
    <!-- flame tufts at the curl tips -->
    <path d="M13.9 8.6 Q13.0 8.0 13.2 7.0 Q13.7 7.4 13.9 6.8 Q14.2 7.5 14.7 7.4 Q14.3 8.1 14.6 8.7 Q14.1 8.5 13.9 8.6 Z"/>
    <path d="M16.4 8.5 Q15.5 7.9 15.7 6.9 Q16.2 7.3 16.4 6.7 Q16.7 7.4 17.2 7.3 Q16.8 8.0 17.1 8.6 Q16.6 8.4 16.4 8.5 Z"/>
    <!-- mane -->
    <path d="M12.10 7.40 L11.98 7.66 L11.65 7.89 L11.25 8.05 L10.91 8.18 L10.74 8.32 L10.77 8.54 L10.95 8.86 L11.16 9.25 L11.26 9.63 L11.19 9.91 L10.92 10.03 L10.53 9.99 L10.12 9.85 L9.77 9.73 L9.55 9.74 L9.43 9.93 L9.37 10.29 L9.28 10.71 L9.12 11.07 L8.88 11.24 L8.60 11.16 L8.32 10.88 L8.09 10.51 L7.91 10.20 L7.73 10.06 L7.52 10.13 L7.24 10.36 L6.89 10.63 L6.54 10.80 L6.25 10.78 L6.08 10.54 L6.05 10.15 L6.12 9.71 L6.18 9.36 L6.13 9.14 L5.92 9.05 L5.56 9.05 L5.12 9.04 L4.74 8.94 L4.54 8.73 L4.56 8.44 L4.79 8.12 L5.12 7.83 L5.39 7.60 L5.50 7.40 L5.39 7.20 L5.12 6.97 L4.79 6.68 L4.56 6.36 L4.54 6.07 L4.74 5.86 L5.12 5.76 L5.56 5.75 L5.92 5.75 L6.13 5.66 L6.18 5.44 L6.12 5.09 L6.05 4.65 L6.08 4.26 L6.25 4.02 L6.54 4.00 L6.89 4.17 L7.24 4.44 L7.52 4.67 L7.73 4.74 L7.91 4.60 L8.09 4.29 L8.32 3.92 L8.60 3.64 L8.88 3.56 L9.12 3.73 L9.28 4.09 L9.37 4.51 L9.43 4.87 L9.55 5.06 L9.77 5.07 L10.12 4.95 L10.53 4.81 L10.92 4.77 L11.19 4.89 L11.26 5.17 L11.16 5.55 L10.95 5.94 L10.77 6.26 L10.74 6.48 L10.91 6.62 L11.25 6.75 L11.65 6.91 L11.98 7.14 Z"/>
    <!-- face disc -->
    <circle cx="7.5" cy="7.7" r="2.15"/>
    <!-- muzzle -->
    <path d="M5.6 7.0 Q3.7 7.2 3.3 8.2 Q3.8 9.2 5.5 9.0 Q6.5 8.8 6.5 7.9 Q6.5 7.0 5.6 7.0 Z"/>
    <!-- body + hind legs -->
    <path d="M9.5 9.6 Q12.1 10.6 13.3 13.0 Q14.1 14.6 14.1 16.4 L14.4 20.6 L12.5 20.6 L12.1 16.6 Q11.9 15.6 11.0 15.6 L9.6 15.6 Q9.0 17.8 9.3 20.6 L7.5 20.6 Q7.0 17.4 7.6 14.6 Q7.0 12.0 7.4 10.2 Z"/>
    <!-- front leg raised -->
    <path d="M7.9 9.8 Q6.2 10.5 5.3 12.6 L6.6 13.1 Q7.5 11.3 8.7 10.8 Z"/>
    <!-- crown (centered on head, x=8.2) -->
    <path d="M5.1 4.0 L5.8 2.0 L7.1 3.5 L8.3 1.8 L9.5 3.5 L10.8 2.0 L11.3 4.0 Z"/>
</svg>
